<svg viewBox="0 0 30 31" fill="none" xmlns="http://www.w3.org/2000/svg">
<path d="M27.184 9.63636L25.6821 11C28.3855 13.4545 28.3855 17.2727 25.6821 19.8636L27.184 21.2273C30.9387 18.0909 30.9387 12.9091 27.184 9.63636ZM24.03 12.5L22.5282 13.8636C23.2791 14.8182 23.2791 16.0455 22.5282 17L24.03 18.3636C25.8323 16.7273 25.8323 14.2727 24.03 12.5ZM18.0225 0.5H3.00375C1.35169 0.5 0 1.72727 0 3.22727V27.7727C0 29.2727 1.35169 30.5 3.00375 30.5H18.0225C19.6746 30.5 21.0263 29.2727 21.0263 27.7727V3.22727C21.0263 1.72727 19.6746 0.5 18.0225 0.5ZM18.0225 26.4091H3.00375V4.59091H18.0225V26.4091Z" fill="#D8D8D8"/>
</svg>
