<svg width="30" height="31" viewBox="0 0 30 31" fill="none" xmlns="http://www.w3.org/2000/svg">
<path d="M15 0.5C6.7125 0.5 0 7.38677 0 15.8808C0 22.6779 4.2975 28.4419 10.2563 30.4734C11.0063 30.6183 11.2812 30.1427 11.2812 29.7339C11.2812 29.3686 11.2688 28.4009 11.2625 27.1191C7.09 28.0471 6.21 25.0555 6.21 25.0555C5.5275 23.2803 4.54125 22.8061 4.54125 22.8061C3.1825 21.8525 4.64625 21.8717 4.64625 21.8717C6.1525 21.9794 6.94375 23.4559 6.94375 23.4559C8.28125 25.8079 10.455 25.1286 11.3125 24.7351C11.4475 23.7405 11.8338 23.0624 12.2625 22.6779C8.93125 22.2934 5.43 20.9706 5.43 15.0772C5.43 13.3981 6.01125 12.0267 6.97375 10.95C6.805 10.5616 6.29875 8.99792 7.105 6.87921C7.105 6.87921 8.36125 6.46649 11.23 8.45574C12.43 8.11352 13.705 7.94433 14.98 7.93664C16.255 7.94433 17.53 8.11352 18.73 8.45574C21.58 6.46649 22.8362 6.87921 22.8362 6.87921C23.6425 8.99792 23.1362 10.5616 22.9862 10.95C23.9425 12.0267 24.5238 13.3981 24.5238 15.0772C24.5238 20.986 21.0175 22.287 17.68 22.6651C18.205 23.1265 18.6925 24.0699 18.6925 25.5105C18.6925 27.569 18.6737 29.2224 18.6737 29.7223C18.6737 30.1261 18.9363 30.6067 19.705 30.4529C25.7062 28.4355 30 22.6676 30 15.8808C30 7.38677 23.2838 0.5 15 0.5Z" fill="white"/>
</svg>
