<svg width="34" height="34" viewBox="0 0 34 34" fill="none" xmlns="http://www.w3.org/2000/svg">
<path d="M17 19.9333C18.62 19.9333 19.9333 18.62 19.9333 17C19.9333 15.38 18.62 14.0667 17 14.0667C15.3799 14.0667 14.0667 15.38 14.0667 17C14.0667 18.62 15.3799 19.9333 17 19.9333Z" fill="white"/>
<path d="M14.2499 7.83333L12.5724 9.66667H9.66659C8.65825 9.66667 7.83325 10.4917 7.83325 11.5V22.5C7.83325 23.5083 8.65825 24.3333 9.66659 24.3333H24.3333C25.3416 24.3333 26.1666 23.5083 26.1666 22.5V11.5C26.1666 10.4917 25.3416 9.66667 24.3333 9.66667H21.4274L19.7499 7.83333H14.2499ZM16.9999 21.5833C14.4699 21.5833 12.4166 19.53 12.4166 17C12.4166 14.47 14.4699 12.4167 16.9999 12.4167C19.5299 12.4167 21.5833 14.47 21.5833 17C21.5833 19.53 19.5299 21.5833 16.9999 21.5833Z" fill="white"/>
</svg>
