<svg width="34" height="34" viewBox="0 0 34 34" fill="none" xmlns="http://www.w3.org/2000/svg">
<path d="M16.5 8V12.25C16.5 12.7331 16.7687 13.1964 17.2469 13.5379C17.7251 13.8795 18.3737 14.0714 19.05 14.0714H25V23.1786C25 23.6616 24.7313 24.1249 24.2531 24.4665C23.7749 24.8081 23.1263 25 22.45 25H10.55C9.8737 25 9.2251 24.8081 8.74688 24.4665C8.26866 24.1249 8 23.6616 8 23.1786V9.82143C8 9.33836 8.26866 8.87507 8.74688 8.53348C9.2251 8.1919 9.8737 8 10.55 8H16.5ZM18.2 8.30357V12.25C18.2 12.411 18.2896 12.5655 18.449 12.6793C18.6084 12.7932 18.8246 12.8571 19.05 12.8571H24.575L18.2 8.30357Z" fill="white"/>
</svg>
