<svg width="34" height="34" viewBox="0 0 34 34" fill="none" xmlns="http://www.w3.org/2000/svg">
<g clip-path="url(#clip0_80_11)">
<path d="M13.2967 12.6523C14.5773 11.6925 16.3693 11.2672 18.1073 11.6265C21.5568 12.3415 23.3552 15.1016 23.4148 18.5382C23.4643 21.3313 21.6915 24.7715 18.9947 25.8834C17.3813 26.5489 15.2858 25.8688 14.6286 24.1665C14.3838 23.5313 14.4324 22.9143 14.5351 22.2928L14.6084 21.8785C14.6616 21.5916 14.7157 21.3019 14.7459 21.0086C14.8073 20.4137 14.4672 20.0433 14.0373 19.7363L13.8173 19.5878L13.3077 19.2669L13.0638 19.0992C12.4863 18.6858 11.874 18.0973 11.621 17.0468C11.1764 15.2088 11.9968 13.6276 13.2967 12.6523V12.6523ZM10.5833 9.20834C11.0696 9.20834 11.5359 9.40149 11.8797 9.74531C12.2235 10.0891 12.4167 10.5554 12.4167 11.0417C12.4167 11.5279 12.2235 11.9942 11.8797 12.338C11.5359 12.6818 11.0696 12.875 10.5833 12.875C10.0971 12.875 9.63079 12.6818 9.28697 12.338C8.94315 11.9942 8.75 11.5279 8.75 11.0417C8.75 10.5554 8.94315 10.0891 9.28697 9.74531C9.63079 9.40149 10.0971 9.20834 10.5833 9.20834V9.20834ZM22.9583 10.125C23.2014 10.125 23.4346 10.2216 23.6065 10.3935C23.7784 10.5654 23.875 10.7986 23.875 11.0417C23.875 11.2848 23.7784 11.5179 23.6065 11.6899C23.4346 11.8618 23.2014 11.9583 22.9583 11.9583C22.7152 11.9583 22.4821 11.8618 22.3102 11.6899C22.1382 11.5179 22.0417 11.2848 22.0417 11.0417C22.0417 10.7986 22.1382 10.5654 22.3102 10.3935C22.4821 10.2216 22.7152 10.125 22.9583 10.125V10.125ZM14.7083 7.83334C14.8889 7.83334 15.0677 7.8689 15.2345 7.938C15.4013 8.0071 15.5529 8.10838 15.6806 8.23606C15.8083 8.36374 15.9096 8.51532 15.9787 8.68215C16.0478 8.84897 16.0833 9.02777 16.0833 9.20834C16.0833 9.3889 16.0478 9.5677 15.9787 9.73453C15.9096 9.90135 15.8083 10.0529 15.6806 10.1806C15.5529 10.3083 15.4013 10.4096 15.2345 10.4787C15.0677 10.5478 14.8889 10.5833 14.7083 10.5833C14.3437 10.5833 13.9939 10.4385 13.7361 10.1806C13.4782 9.92275 13.3333 9.57301 13.3333 9.20834C13.3333 8.84366 13.4782 8.49393 13.7361 8.23606C13.9939 7.9782 14.3437 7.83334 14.7083 7.83334V7.83334ZM19.2917 7.83334C19.4722 7.83334 19.651 7.8689 19.8179 7.938C19.9847 8.0071 20.1363 8.10838 20.2639 8.23606C20.3916 8.36374 20.4929 8.51532 20.562 8.68215C20.6311 8.84897 20.6667 9.02777 20.6667 9.20834C20.6667 9.3889 20.6311 9.5677 20.562 9.73453C20.4929 9.90135 20.3916 10.0529 20.2639 10.1806C20.1363 10.3083 19.9847 10.4096 19.8179 10.4787C19.651 10.5478 19.4722 10.5833 19.2917 10.5833C18.927 10.5833 18.5773 10.4385 18.3194 10.1806C18.0615 9.92275 17.9167 9.57301 17.9167 9.20834C17.9167 8.84366 18.0615 8.49393 18.3194 8.23606C18.5773 7.9782 18.927 7.83334 19.2917 7.83334V7.83334Z" fill="white"/>
</g>
<defs>
<clipPath id="clip0_80_11">
<rect width="22" height="22" fill="white" transform="translate(6 6)"/>
</clipPath>
</defs>
</svg>
