<svg width="34" height="34" viewBox="0 0 34 34" fill="none" xmlns="http://www.w3.org/2000/svg">
<path d="M8 10.125V24.4684C7.99991 24.5606 8.03185 24.6513 8.09268 24.7315C8.15352 24.8117 8.24114 24.8786 8.34693 24.9257C8.45272 24.9727 8.57303 24.9983 8.69602 24.9999C8.819 25.0015 8.94043 24.9791 9.04833 24.9348L16.5 21.8855L23.9517 24.9348C24.0596 24.9791 24.181 25.0015 24.304 24.9999C24.427 24.9983 24.5473 24.9727 24.6531 24.9257C24.7589 24.8786 24.8465 24.8117 24.9073 24.7315C24.9681 24.6513 25.0001 24.5606 25 24.4684V10.125C25 9.56138 24.7015 9.02089 24.1701 8.62238C23.6388 8.22388 22.9181 8 22.1667 8H10.8333C10.0819 8 9.36122 8.22388 8.82986 8.62238C8.29851 9.02089 8 9.56138 8 10.125V10.125Z" fill="white"/>
</svg>
