<svg viewBox="0 0 25 25" fill="none" xmlns="http://www.w3.org/2000/svg">
<path d="M22.0626 16.4952L24.7422 17.8878C25.0859 18.0663 25.0859 18.576 24.7422 18.7545L12.9175 24.8979C12.7879 24.965 12.6451 25 12.5003 25C12.3555 25 12.2127 24.965 12.0831 24.8979L0.258455 18.7545C0.18121 18.7141 0.116291 18.6522 0.0709329 18.5756C0.0255743 18.4991 0.00155713 18.411 0.00155713 18.3212C0.00155713 18.2313 0.0255743 18.1432 0.0709329 18.0667C0.116291 17.9902 0.18121 17.9283 0.258455 17.8878L2.93964 16.4952L11.2472 20.811C12.0363 21.22 12.9659 21.22 13.7534 20.811L22.061 16.4936L22.0626 16.4952ZM12.0831 0.102117C12.2127 0.0349588 12.3555 0 12.5003 0C12.6451 0 12.7879 0.0349588 12.9175 0.102117L24.7422 6.24384C24.8194 6.28455 24.8842 6.34666 24.9295 6.4233C24.9748 6.49993 24.9987 6.5881 24.9987 6.67802C24.9987 6.76794 24.9748 6.8561 24.9295 6.93274C24.8842 7.00937 24.8194 7.07149 24.7422 7.11219L12.9175 13.2523C12.7879 13.3195 12.6451 13.3544 12.5003 13.3544C12.3555 13.3544 12.2127 13.3195 12.0831 13.2523L0.258455 7.11219C0.1808 7.07191 0.115485 7.00995 0.0698332 6.93326C0.0241817 6.85657 0 6.76819 0 6.67802C0 6.58785 0.0241817 6.49947 0.0698332 6.42278C0.115485 6.34609 0.1808 6.28413 0.258455 6.24384L12.0831 0.102117Z" fill="white"/>
<path d="M22.0626 10.6732L24.7422 12.0658C25.086 12.2444 25.086 12.754 24.7422 12.9325L12.9175 19.0743C12.788 19.1414 12.6452 19.1764 12.5004 19.1764C12.3556 19.1764 12.2127 19.1414 12.0832 19.0743L0.258485 12.9325C0.18124 12.8921 0.116321 12.8302 0.0709626 12.7537C0.0256041 12.6771 0.00158691 12.589 0.00158691 12.4992C0.00158691 12.4093 0.0256041 12.3212 0.0709626 12.2447C0.116321 12.1682 0.18124 12.1063 0.258485 12.0658L2.93967 10.6732L11.2473 14.989C12.0363 15.398 12.966 15.398 13.7534 14.989L22.061 10.6732H22.0626Z" fill="white"/>
</svg>
