<svg viewBox="0 0 25 25" fill="none" xmlns="http://www.w3.org/2000/svg">
<path d="M14.1083 10.8916C13.255 10.0387 12.098 9.55957 10.8916 9.55957C9.6852 9.55957 8.52818 10.0387 7.67494 10.8916L4.45724 14.1082C3.60399 14.9615 3.12463 16.1187 3.12463 17.3254C3.12463 18.5321 3.60399 19.6894 4.45724 20.5426C5.31049 21.3959 6.46774 21.8752 7.67442 21.8752C8.8811 21.8752 10.0384 21.3959 10.8916 20.5426L12.4999 18.9343" stroke="white" stroke-width="4.16667" stroke-linecap="round" stroke-linejoin="round"/>
<path d="M10.8916 14.1083C11.7448 14.9612 12.9019 15.4403 14.1083 15.4403C15.3147 15.4403 16.4717 14.9612 17.3249 14.1083L20.5426 10.8916C21.3959 10.0384 21.8752 8.8811 21.8752 7.67442C21.8752 6.46774 21.3959 5.31049 20.5426 4.45724C19.6894 3.60399 18.5321 3.12463 17.3255 3.12463C16.1188 3.12463 14.9615 3.60399 14.1083 4.45724L12.4999 6.06557" stroke="white" stroke-width="4.16667" stroke-linecap="round" stroke-linejoin="round"/>
</svg>
