<svg viewBox="0 0 25 25" fill="none" xmlns="http://www.w3.org/2000/svg">
<path d="M23.1254 3.75C22.6282 3.75 22.1514 3.94754 21.7998 4.29917C21.4483 4.65081 21.2508 5.12772 21.2508 5.625V11.25H20.001V3.125C20.001 2.62772 19.8035 2.15081 19.452 1.79917C19.1004 1.44754 18.6236 1.25 18.1264 1.25C17.6293 1.25 17.1524 1.44754 16.8009 1.79917C16.4493 2.15081 16.2518 2.62772 16.2518 3.125V11.25H15.0021V1.875C15.0021 1.37772 14.8046 0.900806 14.453 0.549175C14.1015 0.197544 13.6247 0 13.1275 0C12.6303 0 12.1535 0.197544 11.8019 0.549175C11.4504 0.900806 11.2529 1.37772 11.2529 1.875V11.25H10.0031V4.375C10.0031 3.87772 9.80562 3.40081 9.45406 3.04917C9.10251 2.69754 8.62569 2.5 8.12851 2.5C7.63134 2.5 7.15452 2.69754 6.80297 3.04917C6.45141 3.40081 6.2539 3.87772 6.2539 4.375V17.8875L3.47948 13.3875C3.21764 12.9632 2.79798 12.6602 2.31283 12.5454C1.82768 12.4305 1.31678 12.5131 0.892522 12.775C0.468263 13.0369 0.1654 13.4566 0.0505581 13.9419C-0.064284 14.4271 0.0183023 14.9382 0.280149 15.3625L4.41679 22.0375C4.9766 22.9428 5.75833 23.6902 6.68785 24.2086C7.61738 24.7271 8.6639 24.9995 9.72818 25H18.7513C20.4086 25 21.9979 24.3415 23.1698 23.1694C24.3417 21.9973 25 20.4076 25 18.75V5.625C25 5.12772 24.8025 4.65081 24.4509 4.29917C24.0994 3.94754 23.6226 3.75 23.1254 3.75Z" fill="white"/>
</svg>
