<svg width="50" height="50" viewBox="0 0 50 50" fill="none" xmlns="http://www.w3.org/2000/svg">
<g clip-path="url(#clip0_39_193)">
<path d="M16.1252 38.6522C16.1252 38.6522 13.5479 39.7613 17.9595 40.1366C23.3042 40.5877 26.0356 40.5231 31.9255 39.6981C31.9255 39.6981 33.4741 40.4166 35.6364 41.039C22.4332 45.2264 5.75456 40.7964 16.1252 38.6522ZM14.5118 33.1877C14.5118 33.1877 11.621 34.7712 16.036 35.1091C21.7452 35.5449 26.2539 35.5806 34.0558 34.4689C34.0558 34.4689 35.1349 35.2785 36.8317 35.7212C20.868 39.1756 3.0874 35.9936 14.5118 33.1877Z" fill="#5382A1"/>
<path d="M28.1132 23.9184C31.3666 26.69 27.2584 29.1842 27.2584 29.1842C27.2584 29.1842 35.5191 26.0286 31.7253 22.0769C28.1821 18.3919 25.4648 16.5607 40.1748 10.2477C40.1748 10.2477 17.085 14.515 28.1132 23.9182" fill="#E76F00"/>
<path d="M45.5757 42.6939C45.5757 42.6939 47.483 43.8568 43.475 44.7565C35.854 46.465 11.755 46.9809 5.06034 44.8246C2.65388 44.05 7.16685 42.9749 8.58636 42.7491C10.0668 42.5116 10.9129 42.5559 10.9129 42.5559C8.2366 41.1607 -6.38572 45.2954 3.48559 46.4793C30.4058 49.71 52.5584 45.0247 45.5757 42.6939ZM17.3645 27.526C17.3645 27.526 5.10643 29.6806 13.0237 30.4629C16.3666 30.7941 23.0306 30.7192 29.238 30.3342C34.311 30.0178 39.405 29.3444 39.405 29.3444C39.405 29.3444 37.6162 29.9113 36.3221 30.5652C23.874 32.9879 -0.173409 31.8608 6.74953 29.3827C12.6043 27.2884 17.3647 27.526 17.3647 27.526M39.3544 36.6217C52.0087 31.7558 46.1578 27.0798 42.0741 27.7098C41.0731 27.8639 40.6269 27.9974 40.6269 27.9974C40.6269 27.9974 40.9985 27.5668 41.7081 27.3803C49.787 25.2785 56.0002 33.5793 39.1001 36.8669C39.1001 36.8671 39.296 36.7376 39.3544 36.6217Z" fill="#5382A1"/>
<path d="M31.7253 0.0536113C31.7253 0.0536113 38.7334 5.24147 25.0785 13.2185C14.1288 19.6176 22.5816 23.2662 25.074 27.4348C18.6824 23.1675 13.9918 19.4108 17.1387 15.9146C21.7573 10.7821 34.5528 8.29379 31.7253 0.0534668" fill="#E76F00"/>
<path d="M18.608 49.8071C30.7544 50.3825 49.4063 49.4879 49.8481 45.2348C49.8481 45.2348 48.999 46.8473 39.8098 48.1276C29.4427 49.5712 16.6564 49.4027 9.0726 48.4775C9.0728 48.4775 10.6251 49.4283 18.6082 49.8071" fill="#5382A1"/>
</g>
<defs>
<clipPath id="clip0_39_193">
<rect width="50" height="50" fill="white"/>
</clipPath>
</defs>
</svg>
