<svg width="50" height="50" viewBox="0 0 50 50" fill="none" xmlns="http://www.w3.org/2000/svg">
<path d="M34.5177 0C30.4611 0.30625 25.1063 1.48542 18.5317 3.58125C16.5595 4.75828 14.4969 5.82925 12.357 6.7875L12.3823 7.11667C12.5443 7.11667 12.7265 7.02708 12.9897 6.91667C13.2579 6.89583 13.4174 6.98333 13.4174 7.20208L13.8425 7.00625L14.0551 6.98333L14.0804 7.1375C14.1057 7.28958 12.648 8.22708 9.7606 9.90833L9.99595 10.2125L9.78338 10.2375L9.33546 10.1042C9.33546 10.2125 9.15072 10.2812 8.72811 10.3021L8.75342 10.4771L9.2317 10.9146C9.01248 10.9119 8.79595 10.8744 8.59399 10.8042C7.66525 10.8687 6.73651 11.4354 5.83561 12.4833L6.07349 12.7896C6.8681 12.2 7.31856 11.8938 7.45015 11.8938L7.50582 12.3729C7.37423 12.3729 7.16166 12.4604 6.89847 12.5687L7.40207 13.1833C8.32569 12.3466 9.38603 11.6195 10.5527 11.0229C11.1347 11.1542 11.4283 11.2833 11.4283 11.4583L11.8534 11.4375C14.9534 9.53958 18.0281 8.18333 21.075 7.33333L21.1054 7.6625C20.5486 8.36042 20.1513 8.70625 19.9388 8.72708C19.9641 8.96875 20.0704 9.16458 20.2298 9.3625C20.2829 9.8 18.9037 12.6604 16.0922 17.9854C9.67709 30.3396 4.3223 39.4583 0 45.3937C0 45.5021 0.103756 45.6771 0.237879 45.8729C1.29821 45.6562 1.98654 45.4625 2.27756 45.2437L2.5205 45.2188L2.5458 45.5479L2.94564 45.525L3.36573 45.3292C3.36573 45.4375 3.52515 45.4812 3.79087 45.4583L3.82124 45.7896C3.84654 46.1167 3.63144 46.6167 3.12785 47.2937C2.6774 47.7104 2.22948 48.5583 1.72588 49.8458L1.75119 50L2.15103 49.9792C3.87185 48.3875 5.1979 46.8125 6.0988 45.2833C11.1626 44.0625 15.0066 42.8625 17.684 41.6833C20.3614 41.4875 22.4314 40.9229 23.8081 39.9625L23.7802 39.7875L22.7705 40.0271L22.5326 40.0479L22.5073 39.8729C24.4711 39.6312 25.8478 39.2625 26.5918 38.7812C30.4358 36.3375 33.3232 34.6146 35.2844 33.5896C41.3579 29.9229 44.2201 26.3875 43.8759 23.0271C43.8506 22.6771 42.4967 21.3021 39.8725 18.9021C39.8193 18.4437 40.7455 17.7875 42.6005 16.9146L47.8793 13.0937C49.0434 11.85 49.7621 9.84375 50 7.07292L49.9216 6.41667C49.709 4.475 48.0084 2.90208 44.7743 1.7C42.8687 0.63125 39.4473 0.0645833 34.5177 0ZM40.9075 2.16042C44.8299 2.29167 46.8469 2.85833 46.9531 3.8625L46.7937 4.19167L40.9075 2.16042ZM37.1571 4.90417C39.8471 4.87083 41.2491 5.46042 41.3883 6.70208L41.7831 6.67708L41.7046 5.84792L42.1298 5.82708C43.1623 6.28542 43.7165 6.85208 43.7696 7.52708C43.8228 7.98542 43.5317 8.55625 42.8712 9.23333C42.6055 9.25417 42.4461 9.1 42.4208 8.77292L41.9957 8.79792L41.8919 9.77708C40.1154 11.9604 38.8425 13.0729 38.0453 13.1396C37.3292 13.9458 36.8762 14.3625 36.6915 14.3833C36.1347 14.9292 34.6265 15.8667 32.1364 17.175C31.3139 17.2417 28.262 18.2021 22.9856 20.1C22.7225 19.9974 22.4289 19.9597 22.1404 19.9917L22.11 19.6854C22.0594 19.0521 22.3808 18.2667 23.1476 17.3062C23.5474 15.5146 23.9953 14.4896 24.4989 14.25L28.8972 6.1125C28.8465 5.61042 29.7753 5.21667 31.7087 4.95625L32.3464 4.91042L32.397 5.37083C33.5705 5.21842 34.7465 5.07952 35.9247 4.95417C36.3625 4.925 36.7724 4.90833 37.1571 4.90417ZM46.3154 5.71667H46.3837C46.7355 5.74167 47.1126 6.26458 47.5124 7.26667L47.5377 7.57292C47.3226 7.59375 46.9304 7.06875 46.3458 6.02292L46.3154 5.71667ZM21.4242 10.8896H21.6064L21.6621 11.3687C21.4748 11.3896 21.2142 11.6104 20.8953 12.0688L20.865 11.7437C21.237 11.3729 21.4217 11.0854 21.4217 10.8896H21.4242ZM8.80656 11.1542L8.83187 11.3042C8.69774 11.3042 8.4877 11.3937 8.22452 11.5021L8.00941 11.5229L7.98411 11.2188L8.80656 11.1542ZM19.6503 14.2917L19.7287 14.9479L19.5161 14.9687L19.4377 14.3167L19.6503 14.2917ZM19.1441 15.4729C19.0935 16.0187 18.9316 16.3 18.5874 16.3229L18.3748 16.3437C18.6127 15.9729 18.7468 15.7125 18.7215 15.5167L19.1467 15.4729H19.1441ZM18.2711 17.1729L18.2964 17.3271L17.9244 17.8479L17.5245 17.8729L17.4992 17.7188C17.8965 17.6979 18.0838 17.525 18.056 17.1979L18.2711 17.1729ZM17.3651 18.7042L17.2639 19.5083L17.0488 19.5292L16.9729 18.7229L17.3651 18.7021V18.7042ZM38.8678 19.2875L39.7409 19.7292C39.7662 19.9458 39.6346 20.0771 39.3714 20.0979C38.9994 19.9021 38.7084 19.8146 38.4958 19.8146L38.4427 19.3354L38.8678 19.2896V19.2875ZM22.0316 21.1437L22.062 21.45L21.237 21.5187L21.2117 21.2104L22.0316 21.1437ZM35.6033 22.2792C36.1853 22.4979 36.4814 22.7167 36.5093 22.8896L36.5346 23.0458C35.9778 23.0875 35.4717 22.8479 34.996 22.325L35.6033 22.2792ZM42.1829 22.8042C42.6334 22.9583 42.8434 23.1125 42.8712 23.2646L43.0028 24.55C42.8181 24.9 42.6334 25.075 42.4208 25.075L42.1829 22.8042ZM31.567 22.9396C33.6927 22.9104 35.3173 23.3229 36.4308 24.2L36.5067 24.8562C35.5552 27.1271 34.4949 28.4375 33.3561 28.8521L28.0519 32.3229C24.1042 34.4604 21.9784 35.5271 21.6621 35.5479C15.3786 38.4083 11.4587 39.8708 9.94534 39.9792L9.70493 40C9.9175 39.3896 12.7037 34.6771 18.1117 25.8167C20.498 25.6417 24.2611 24.7229 29.378 23.0667L30.623 22.9792C30.947 22.9583 31.2633 22.9438 31.567 22.9375V22.9396ZM23.8359 23.9604L23.8612 24.1146L23.016 24.1792L22.9856 24.025L23.8359 23.9604ZM10.6109 34.5229C10.3452 35.6375 10.0516 36.2062 9.7606 36.2292L9.7353 36.0729C9.68215 35.5062 9.97318 35.0042 10.6109 34.5229ZM28.5808 35.2229L28.6061 35.5292C28.6314 35.6604 28.0241 36.0729 26.8322 36.7937C23.3045 38.2125 21.2395 39.1937 20.6271 39.6958C16.8109 40.7854 14.9281 41.4646 14.9534 41.725C11.5624 42.8396 9.33546 43.6479 8.27766 44.15C8.03725 44.1708 7.66778 44.0854 7.18949 43.9104C7.13635 43.3437 7.42484 42.8812 8.11317 42.5104C8.69521 42.4688 9.28485 42.5333 9.81375 42.7312C10.4489 42.4687 11.5346 42.1604 13.101 41.8562L13.0707 41.5312L11.8256 41.6146C11.985 41.4417 13.1795 40.9833 15.4596 40.2188L16.0947 40.1771L16.1201 40.3292C15.0597 40.3958 14.4498 40.6771 14.3157 41.1354C14.341 41.3312 14.4777 41.4417 14.7409 41.4208C15.5102 40.9833 15.9075 40.7458 15.9075 40.6792C17.4461 40.4396 21.6621 38.6062 28.5808 35.2229ZM9.3886 36.7292L9.41391 36.8792C9.43922 37.0979 9.30762 37.2333 9.04191 37.2542L9.0166 37.1C8.9913 36.9021 9.12289 36.7729 9.3886 36.7292ZM18.929 38.6812C19.1543 38.6771 19.2808 38.7833 19.3036 38.9542C18.8 38.9979 17.8712 39.325 16.4667 39.9792L16.2542 40L16.2289 39.675C17.2109 39.6217 18.1349 39.2732 18.8253 38.6958C18.8607 38.6896 18.8961 38.6833 18.9265 38.6812H18.929ZM9.65685 41.2708L9.68215 41.4417C9.5202 41.4417 9.33293 41.5312 9.06721 41.6396L8.67244 41.6604C8.64713 41.5083 8.75342 41.3771 9.01913 41.3104L9.65685 41.2687V41.2708ZM4.80312 43.2562L5.25104 43.4062C5.09161 44.3875 4.74998 44.8917 4.13757 44.9354C3.73331 44.7756 3.28737 44.7005 2.83936 44.7167L2.78621 44.2375C2.76091 44.0396 2.89503 43.9312 3.18605 43.8667C3.45177 43.8458 3.60866 43.9937 3.6365 44.3208C4.35014 43.6021 4.74998 43.2562 4.80059 43.2562H4.80312Z" fill="#F9DC3E"/>
</svg>
