<svg width="50" height="50" viewBox="0 0 50 50" fill="none" xmlns="http://www.w3.org/2000/svg">
<path d="M29.6458 25.0058C29.6458 26.3926 29.1553 27.7227 28.2822 28.7035C27.409 29.6843 26.2247 30.2356 24.9896 30.2363C23.7541 30.2363 22.5693 29.6852 21.6956 28.7043C20.822 27.7234 20.3312 26.393 20.3312 25.0058C20.3312 23.6191 20.8218 22.289 21.6949 21.3082C22.5681 20.3274 23.7524 19.7761 24.9875 19.7754C26.223 19.7754 27.4078 20.3265 28.2814 21.3074C29.155 22.2883 29.6458 23.6187 29.6458 25.0058ZM35.1625 0C32.3583 0 28.6896 2.24561 24.9792 6.13333C21.2708 2.26667 17.6 0.0467836 14.7979 0.0467836C13.9437 0.0467836 13.1667 0.264327 12.4937 0.697076C9.62917 2.55205 8.9875 8.33216 10.4667 15.586C4.125 17.7848 0 21.3006 0 25.0058C0 28.7251 4.14583 32.2503 10.5063 34.4327C9.03958 41.7146 9.69375 47.5041 12.5646 49.3567C13.2312 49.7942 14.0021 50 14.8604 50C17.6625 50 21.3333 47.7544 25.0437 43.862C28.7521 47.731 32.4229 49.9509 35.225 49.9509C36.0792 49.9509 36.8562 49.7403 37.5292 49.3076C40.3917 47.455 41.0354 41.6749 39.5562 34.4187C45.875 32.2386 50 28.7158 50 25.0058C50 21.2865 45.8542 17.7614 39.4938 15.5743C40.9604 8.29941 40.3062 2.50526 37.4354 0.650292C36.7729 0.219883 36.0021 0.00233918 35.1604 0H35.1625ZM35.1521 2.54971V2.56374C35.6208 2.56374 35.9979 2.66667 36.3146 2.86082C37.7021 3.75439 38.3042 7.15322 37.8354 11.5251C37.7229 12.6012 37.5396 13.7357 37.3146 14.8936C35.3146 14.3415 33.1354 13.9181 30.8417 13.6444C29.4667 11.5275 28.0396 9.60468 26.6021 7.92047C29.9187 4.45848 33.0333 2.55906 35.1542 2.55205L35.1521 2.54971ZM14.7979 2.59649C16.9062 2.59649 20.0354 4.48655 23.3604 7.92982C21.9312 9.61403 20.5062 11.5251 19.1521 13.6421C16.8458 13.9158 14.6646 14.3392 12.6667 14.9006C12.4333 13.7544 12.2604 12.6456 12.1375 11.5789C11.6583 7.20936 12.25 3.81287 13.625 2.9076C14.0208 2.69708 14.4583 2.61053 14.7979 2.59883V2.59649ZM24.9687 9.73099C25.9167 10.8257 26.8646 12.0515 27.8021 13.3895C26.8854 13.3427 25.9479 13.3099 25 13.3099C24.0417 13.3099 23.0938 13.3333 22.1667 13.3895C23.0833 12.0515 24.0312 10.8257 24.9687 9.72865V9.73099ZM25 15.8737C26.5417 15.8737 28.0771 15.9532 29.5875 16.0912C30.4333 17.4526 31.2583 18.9053 32.0521 20.4421C32.8271 21.9392 33.5312 23.4596 34.1729 24.9942C33.5312 26.5263 32.8271 28.0585 32.0625 29.5556C31.2708 31.0994 30.4521 32.5684 29.6042 33.9298C28.0875 34.0772 26.55 34.1591 25 34.1591C23.4583 34.1591 21.9229 34.0772 20.4125 33.9415C19.5667 32.5801 18.7417 31.1251 17.9479 29.5906C17.1729 28.0936 16.4688 26.5731 15.8271 25.0386C16.4583 23.5018 17.1729 21.9673 17.9375 20.4678C18.7292 18.924 19.5479 17.4596 20.3958 16.0982C21.9125 15.9485 23.45 15.869 25 15.869V15.8737ZM17.4271 16.4678C16.9271 17.3497 16.4271 18.2526 15.9604 19.1813C15.4917 20.0936 15.0542 21.0105 14.6375 21.9275C14.0854 20.393 13.6167 18.8632 13.2292 17.3731C14.5625 17.0222 15.9687 16.7111 17.4271 16.4702V16.4678ZM32.5521 16.4678C34 16.7088 35.3958 17.0058 36.7313 17.3731C36.3563 18.8515 35.8875 20.3719 35.3563 21.8947C34.9396 20.9825 34.5021 20.0632 34.0229 19.1485C33.5542 18.2316 33.0542 17.338 32.5542 16.4678H32.5521ZM38.9333 18.0468C39.9417 18.3977 40.9 18.7883 41.7979 19.2117C45.4062 20.9427 47.7396 23.207 47.7396 25.0035C47.7292 26.8 45.3958 29.0737 41.7875 30.793C40.9125 31.214 39.9542 31.593 38.9646 31.9462C38.3812 29.7053 37.6188 27.3708 36.6729 24.9754C37.6104 22.5965 38.3604 20.2737 38.9333 18.0421V18.0468ZM11.0271 18.0561C11.6062 20.3018 12.3708 22.6339 13.3187 25.0269C12.3812 27.4058 11.6271 29.7287 11.0562 31.9602C10.0479 31.6094 9.08958 31.2164 8.20208 30.7906C4.59375 29.0667 2.26042 26.8 2.26042 25.0035C2.26042 23.207 4.59375 20.9287 8.20208 19.2117C9.07708 18.7906 10.0354 18.4117 11.0271 18.0561ZM35.3563 28.0678C35.9083 29.6047 36.3771 31.1368 36.7646 32.6246C35.4312 32.9918 34.0229 33.3029 32.5646 33.5368C33.0646 32.6596 33.5646 31.7544 34.0333 30.8281C34.5021 29.9158 34.9396 28.9848 35.3583 28.0678H35.3563ZM14.6375 28.1146C15.0542 29.0316 15.4917 29.9462 15.9708 30.8632C16.45 31.7754 16.9396 32.669 17.4396 33.5368C15.9917 33.2982 14.5958 32.9988 13.2604 32.6339C13.6354 31.1602 14.1062 29.6351 14.6354 28.1123L14.6375 28.1146ZM37.3333 35.1018C37.5667 36.255 37.75 37.3661 37.8625 38.4304C38.3417 42.8 37.75 46.1965 36.375 47.1041C36.0687 47.3146 35.6708 47.4035 35.2021 47.4035C33.0937 47.4035 29.9646 45.5158 26.6396 42.0702C28.0687 40.386 29.4937 38.4772 30.8479 36.3626C33.1542 36.0865 35.3354 35.6608 37.3333 35.0994V35.1018ZM12.6875 35.1251C14.6875 35.6725 16.8667 36.0959 19.1604 36.3696C20.5354 38.4865 21.9625 40.4094 23.4 42.0912C20.0771 45.5602 16.9583 47.4597 14.8375 47.4597C14.3792 47.448 13.9917 47.3427 13.6854 47.1509C12.2979 46.262 11.6958 42.8608 12.1646 38.4889C12.2771 37.4129 12.4604 36.2807 12.6854 35.1251H12.6875ZM22.1875 36.6222C23.1042 36.669 24.0417 36.7018 24.9896 36.7018C25.9479 36.7018 26.8958 36.6784 27.8229 36.6222C26.9062 37.9602 25.9583 39.1836 25.0208 40.283C24.0729 39.1836 23.125 37.9602 22.1875 36.6222Z" fill="#61DAFB"/>
</svg>
