<svg width="50" height="50" viewBox="0 0 50 50" fill="none" xmlns="http://www.w3.org/2000/svg">
<path d="M45.5266 2.92133C44.8324 4.5886 43.9338 6.16301 42.8516 7.60834C40.5342 5.20926 37.7598 3.29983 34.6925 1.99301C31.6251 0.686193 28.3271 0.00852032 24.9936 7.98292e-05C21.6601 -0.00836066 18.3588 0.652602 15.2849 1.94387C12.211 3.23514 9.42692 5.13049 7.09744 7.51781C4.76796 9.90513 2.94034 12.7359 1.72269 15.8428C0.505048 18.9496 -0.0778958 22.2694 0.00834491 25.6057C0.0945856 28.942 0.848259 32.2272 2.22478 35.2668C3.60131 38.3064 5.57273 41.0388 8.02243 43.3023L8.94848 44.1264C12.4626 47.0936 16.7284 49.0291 21.2736 49.7186C25.8187 50.4081 30.4658 49.8247 34.7002 48.033C38.9345 46.2412 42.591 43.3111 45.2645 39.5671C47.9381 35.8231 49.5244 31.4113 49.8479 26.8203C50.5681 20.5366 48.6646 12.5014 45.5264 2.92113L45.5266 2.92133ZM11.6239 43.5083C11.3594 43.8338 11.0045 44.0734 10.604 44.1969C10.2035 44.3205 9.77538 44.3224 9.3738 44.2024C8.97223 44.0824 8.61518 43.846 8.34779 43.5229C8.0804 43.1998 7.91467 42.8047 7.87154 42.3873C7.82841 41.97 7.90981 41.5492 8.10547 41.1782C8.30112 40.8071 8.60224 40.5025 8.97078 40.3027C9.33932 40.103 9.75872 40.0171 10.176 40.0559C10.5933 40.0947 10.9897 40.2565 11.3152 40.5208C11.7418 40.8826 12.0123 41.3956 12.0698 41.9524C12.1273 42.5092 11.9676 43.0668 11.6239 43.5083ZM45.3723 36.0399C39.2504 44.2294 26.0803 41.448 17.6946 41.8601C17.6946 41.8601 16.2027 41.9632 14.7106 42.169C14.7106 42.169 15.2766 41.9117 15.9969 41.6541C21.9131 39.5939 24.6911 39.1818 28.2924 37.3275C35.0318 33.8765 41.7712 26.3053 43.1087 18.4762C40.5364 25.9961 32.7168 32.4859 25.6171 35.1128C20.7298 36.9155 11.9327 38.6668 11.9327 38.6668L11.5725 38.4607C5.6047 35.5247 5.39908 22.5452 16.3054 18.3732C21.09 16.5189 25.6171 17.5493 30.8132 16.313C36.3178 15.0252 42.6973 10.9047 45.2696 5.49667C48.1504 14.2011 51.6488 27.6959 45.3723 36.0399Z" fill="#6DB33F"/>
</svg>
