<svg width="50" height="50" viewBox="0 0 50 50" fill="none" xmlns="http://www.w3.org/2000/svg">
<path d="M24.9965 50C24.2424 50 23.4906 49.825 22.8304 49.4854L15.9329 45.8667C14.9039 45.3563 15.4067 45.175 15.745 45.0688C17.1193 44.6459 17.3965 44.548 18.8648 43.8105C19.0175 43.7334 19.2196 43.7626 19.377 43.8459L24.677 46.6354C24.8696 46.7292 25.1398 46.7292 25.316 46.6354L45.978 36.0606C46.1707 35.9626 46.2928 35.7668 46.2928 35.5647V14.4191C46.2928 14.2129 46.1683 14.0191 45.971 13.915L25.3183 3.3484C25.128 3.25049 24.8743 3.25049 24.6817 3.3484L4.03374 13.917C3.83405 14.0191 3.70718 14.2191 3.70718 14.4191V35.5647C3.70718 35.7668 3.83405 35.9585 4.03374 36.0543L9.69318 38.9543C12.7637 40.3168 14.6455 38.7126 14.6455 37.1001V16.2233C14.6455 15.9274 14.9133 15.6962 15.2469 15.6962H17.8664C18.1929 15.6962 18.4654 15.9295 18.4654 16.2233V37.1001C18.4654 40.7355 16.2336 42.8188 12.3479 42.8188C11.1544 42.8188 10.2124 42.8188 7.58821 41.6709L2.16605 38.9064C0.826951 38.221 0 36.9376 0 35.5647V14.4191C0 13.0462 0.8293 11.7629 2.16605 11.0796L22.8281 0.492182C24.1366 -0.164061 25.8728 -0.164061 27.1696 0.492182L47.8293 11.0796C49.1683 11.765 50 13.0462 50 14.4191V35.5647C50 36.9376 49.1683 38.2168 47.8293 38.9064L27.1696 49.4854C26.5118 49.825 25.7623 50 24.9965 50ZM41.6788 29.1523C41.6788 25.194 38.6623 24.1399 32.3122 23.3961C25.8963 22.644 25.2432 22.2545 25.2432 20.9232C25.2432 19.8232 25.7952 18.3545 30.5479 18.3545C34.793 18.3545 36.3577 19.1649 37.0014 21.7024C37.0577 21.942 37.3044 22.117 37.5816 22.117H40.2622C40.429 22.117 40.5864 22.0524 40.6991 21.9482C40.8119 21.8357 40.873 21.692 40.8566 21.5399C40.4407 17.1691 37.1658 15.1316 30.5479 15.1316C24.6558 15.1316 21.1413 17.3358 21.1413 21.0336C21.1413 25.044 24.637 26.1523 30.2918 26.6482C37.0577 27.2357 37.5816 28.1127 37.5816 29.2919C37.5816 31.3398 35.728 32.2127 31.3748 32.2127C25.908 32.2127 24.7052 30.996 24.3011 28.5836C24.2541 28.3252 24.0051 28.1356 23.7067 28.1356H21.0356C20.7043 28.1356 20.4388 28.369 20.4388 28.6627C20.4388 31.7502 22.3324 35.4293 31.3748 35.4293C37.9246 35.4314 41.6788 33.146 41.6788 29.1523Z" fill="#339933"/>
</svg>
