<svg width="50" height="50" viewBox="0 0 50 50" fill="none" xmlns="http://www.w3.org/2000/svg">
<path d="M15.1167 18.198L24.6145 11.9557C24.7311 11.8793 24.8633 11.8391 24.9979 11.8391C25.1324 11.8391 25.2646 11.8793 25.3812 11.9557L34.879 18.198C34.9958 18.275 35.0927 18.3857 35.16 18.519C35.2273 18.6522 35.2626 18.8032 35.2623 18.9569V31.4391C35.262 31.5924 35.2265 31.7428 35.1592 31.8756C35.0919 32.0083 34.9953 32.1187 34.879 32.1957L25.3812 38.438C25.2646 38.5144 25.1324 38.5546 24.9979 38.5546C24.8633 38.5546 24.7311 38.5144 24.6145 38.438L15.1167 32.1957C14.9999 32.1187 14.903 32.008 14.8357 31.8747C14.7684 31.7415 14.7331 31.5905 14.7334 31.4368V18.9569C14.7333 18.8033 14.7687 18.6523 14.836 18.5192C14.9033 18.386 15.0001 18.2752 15.1167 18.198ZM49.6892 23.8853L38.3435 1.41353C37.931 0.600038 37.1685 0 36.3435 0H13.6542C12.8293 0 12.0668 0.600038 11.6543 1.41353L0.308579 23.8355C0.106355 24.239 0 24.6955 0 25.1601C0 25.6246 0.106355 26.0812 0.308579 26.4847L11.6564 48.7738C12.0668 49.585 12.8293 50 13.6542 50H36.3477C37.1706 50 37.931 49.5968 38.3456 48.7857L49.6913 26.461C49.8934 26.0708 50 25.6261 50 25.1731C50 24.7202 49.8934 24.2755 49.6913 23.8853M40.2956 34.6907C40.2917 34.8548 40.2505 35.0149 40.176 35.1554C40.1015 35.2959 39.9963 35.412 39.8706 35.4924L25.4145 44.9839C25.2902 45.0648 25.1494 45.1073 25.0062 45.1073C24.863 45.1073 24.7222 45.0648 24.5979 44.9839L10.1335 35.4924C10.0074 35.4123 9.90172 35.2963 9.82685 35.1558C9.75199 35.0153 9.71047 34.855 9.70638 34.6907V15.703C9.70638 15.3709 9.87929 15.065 10.1314 14.9013L24.5812 5.40983C24.8312 5.24381 25.1479 5.24381 25.3979 5.40983L39.8623 14.9037C39.9887 14.9835 40.0948 15.0993 40.17 15.2399C40.2453 15.3804 40.2871 15.5408 40.2914 15.7053L40.2956 34.6907Z" fill="#4B32C3"/>
</svg>
