<svg width="50" height="50" viewBox="0 0 50 50" fill="none" xmlns="http://www.w3.org/2000/svg">
<path d="M34.6536 34.8946C36.4661 34.7298 37.8681 33.0492 37.7785 31.0413C37.6806 29.0334 36.1202 27.4209 34.2182 27.4209H34.0911C33.1472 27.4564 32.2553 27.8857 31.6115 28.6145C30.9676 29.3432 30.6246 30.3118 30.6578 31.3071C30.7203 32.3594 31.1286 33.2162 31.687 33.8401C29.5037 38.3172 26.2266 41.6081 21.26 44.3739C17.9205 46.2149 14.3935 46.9091 10.9602 46.417C8.08943 45.9886 5.84363 44.6375 4.46865 42.4649C2.41035 39.1718 2.22285 35.6195 3.93741 32.065C5.18739 29.4947 7.06027 27.6208 8.31025 26.6982C7.93291 25.5948 7.6403 24.4612 7.43527 23.3084C-1.80833 30.29 -0.866683 39.833 1.94161 44.3431C4.03324 47.634 8.31025 49.7386 12.9914 49.7386C14.2414 49.7386 15.5539 49.6419 16.831 49.3124C24.9496 47.667 31.0974 42.533 34.6244 34.9627L34.6536 34.8946ZM45.7951 26.6652C40.9618 20.6722 33.8411 17.3814 25.7246 17.3814H24.6621C24.135 16.1643 22.9184 15.4064 21.5413 15.4064H21.4475C19.483 15.4064 17.9518 17.1859 18.0163 19.2575C18.0788 21.2302 19.6705 22.8779 21.5746 22.8779H21.7288C22.4042 22.8503 23.0578 22.6184 23.6115 22.2098C24.1653 21.8011 24.5958 21.2331 24.8517 20.5734H26.0079C30.8182 20.5734 35.3723 22.054 39.5243 24.9495C42.7055 27.1573 44.9868 30.0527 46.268 33.5105C47.3888 36.3401 47.3284 39.1059 46.1742 41.4126C44.393 45.0308 41.3951 46.942 37.4327 46.942C34.9348 46.942 32.5015 46.1182 31.2516 45.5272C30.5016 46.1819 29.2516 47.2693 28.3474 47.9284C31.0932 49.2421 33.8723 50 36.5556 50C42.643 50 47.168 46.3818 48.8867 42.891C50.7575 38.9411 50.6033 32.2935 45.8242 26.5993L45.7951 26.6652ZM13.5206 36.0765C13.5831 38.0514 15.1726 39.6968 17.0789 39.6968H17.2039C17.673 39.6857 18.1352 39.5756 18.5634 39.3732C18.9916 39.1707 19.377 38.8799 19.6969 38.518C20.0169 38.156 20.2649 37.7302 20.4264 37.2656C20.5878 36.801 20.6595 36.3071 20.6371 35.8128C20.6371 33.8357 19.0143 32.1946 17.1101 32.1946H16.9851C16.8601 32.1946 16.6726 32.1946 16.5143 32.2584C13.9247 27.6494 12.831 22.7087 13.2393 17.3814C13.4893 13.3656 14.7393 9.87478 16.983 6.97935C18.858 4.51011 22.385 3.28866 24.7892 3.22715C31.5307 3.09315 34.3411 11.9508 34.5578 15.4723L37.6785 16.4609C36.9598 5.66125 30.5953 0 24.5079 0C18.7913 0 13.5206 4.3783 11.3956 10.7975C8.49358 19.3541 10.3977 27.5857 13.9581 34.1696C13.6456 34.598 13.4581 35.3537 13.5206 36.0765Z" fill="#764ABC"/>
</svg>
