<svg width="50" height="50" viewBox="0 0 50 50" fill="none" xmlns="http://www.w3.org/2000/svg">
<path d="M18.9127 0.000114397C17.6877 0.000114397 16.4607 0.899247 15.7586 2.69751L0.492115 41.9016C-0.907868 45.4981 0.846277 49.9938 3.64624 49.9938H15.5628C14.9446 49.1966 14.5331 48.1011 14.3999 46.8977C14.2667 45.6943 14.4201 44.4593 14.8336 43.4074L26.3897 13.8107L22.0648 2.69751C21.7457 1.87221 21.286 1.18784 20.7323 0.714042C20.1787 0.240239 19.5508 -0.00609071 18.9127 0.000114397ZM34.3438 9.091C33.3292 9.091 32.3167 9.82524 31.7355 11.2968L19.1044 43.3732C17.944 46.3132 19.3919 50 21.7106 50H46.9811C49.3019 50 50.7519 46.3132 49.5915 43.3732L36.9521 11.2968C36.6858 10.6187 36.3044 10.0574 35.8465 9.66954C35.3885 9.28172 34.8702 9.08109 34.3438 9.08789V9.091Z" fill="#00DC82"/>
</svg>
