<svg width="50" height="50" viewBox="0 0 50 50" fill="none" xmlns="http://www.w3.org/2000/svg">
<path d="M25 0C11.1875 0 0 11.478 0 25.6347C0 36.9632 7.1625 46.5698 17.0938 49.9557C18.3438 50.1971 18.8021 49.4046 18.8021 48.7231C18.8021 48.1143 18.7812 46.5014 18.7708 44.3652C11.8167 45.9118 10.35 40.9259 10.35 40.9259C9.2125 37.9672 7.56875 37.1768 7.56875 37.1768C5.30417 35.5874 7.74375 35.6195 7.74375 35.6195C10.2542 35.7989 11.5729 38.2599 11.5729 38.2599C13.8021 42.1798 17.425 41.0476 18.8542 40.3918C19.0792 38.7341 19.7229 37.604 20.4375 36.9632C14.8854 36.3223 9.05 34.1177 9.05 24.2953C9.05 21.4969 10.0187 19.2111 11.6229 17.4167C11.3417 16.7694 10.4979 14.1632 11.8417 10.632C11.8417 10.632 13.9354 9.94415 18.7167 13.2596C20.7167 12.6892 22.8417 12.4072 24.9667 12.3944C27.0917 12.4072 29.2167 12.6892 31.2167 13.2596C35.9667 9.94415 38.0604 10.632 38.0604 10.632C39.4042 14.1632 38.5604 16.7694 38.3104 17.4167C39.9042 19.2111 40.8729 21.4969 40.8729 24.2953C40.8729 34.1433 35.0292 36.3116 29.4667 36.9418C30.3417 37.7108 31.1542 39.2831 31.1542 41.6842C31.1542 45.115 31.1229 47.8708 31.1229 48.7039C31.1229 49.3768 31.5604 50.1779 32.8417 49.9215C42.8438 46.5591 50 36.9461 50 25.6347C50 11.478 38.8062 0 25 0Z" fill="white"/>
</svg>
