<svg width="50" height="50" viewBox="0 0 50 50" fill="none" xmlns="http://www.w3.org/2000/svg">
<path d="M16.3977 2.81128e-05C14.9366 -0.00530769 13.512 0.749033 12.329 2.15455C9.2811 5.709 7.75819 12.1453 7.36235 18.1957C6.93735 24.8129 7.84152 32.4203 10.2748 37.4464C9.87068 39.3926 10.6769 41.5506 11.9269 41.7759C12.4122 41.8736 12.9026 41.6812 13.3082 41.234C13.7139 40.7868 14.0075 40.1148 14.1353 39.3414C14.5457 37.0879 13.2498 34.7592 11.7811 35.2816C9.73526 30.7711 9.0936 24.9085 9.31026 19.3942C9.57068 14.013 10.7332 8.28009 13.4457 4.89978C15.1332 2.84427 17.254 2.77598 18.9665 4.64369C21.2727 7.17722 22.6394 11.9233 23.0706 16.3553L24.1331 17.0348L25.2811 18.0181C24.8686 11.5716 22.9956 4.81783 19.9144 1.7175C18.8657 0.608428 17.6458 0.0126272 16.3977 2.81128e-05ZM36.2206 13.4735C34.0501 13.4463 31.894 14.0545 29.854 15.2695C29.4265 14.8818 28.9278 14.7616 28.4504 14.9311C27.9729 15.1007 27.5493 15.5485 27.2581 16.1914C26.4373 17.9157 26.9206 20.6199 28.2477 21.296C29.529 22.0165 30.9352 20.3263 30.8831 18.1615C32.7856 17.1061 34.7912 16.6395 36.7977 16.7855C40.0789 17.0245 44.4331 19.0186 46.4352 24.1198C46.5935 24.5261 46.7789 25.4992 47.5206 25.4855C47.6904 25.4792 47.8565 25.4026 48.0034 25.2629C48.1503 25.1233 48.2734 24.925 48.3611 24.6866C48.4488 24.4482 48.4983 24.1773 48.5051 23.8992C48.5118 23.621 48.4756 23.3445 48.3997 23.0954C47.3039 19.7151 45.2289 17.2055 42.9081 15.6041C40.8581 14.1973 38.5435 13.4871 36.2206 13.4735ZM13.179 15.9216C12.2311 15.9114 11.2415 16.9323 11.1394 19.1073C11.1644 23.3174 14.5915 23.6486 15.1227 19.9268C19.054 19.0015 23.2352 21.9209 26.1644 25.7894C28.1915 28.4186 30.0227 32.5945 30.481 36.3162C30.8185 36.5586 31.7519 37.221 32.5685 37.361C32.2644 31.7682 30.0373 26.7728 27.4602 23.2696C24.1936 18.7283 18.8707 15.3207 14.5061 16.7719C14.1483 16.2179 13.6733 15.9131 13.1811 15.9216H13.179ZM6.05819 22.2725C4.25403 24.3519 2.6207 26.9162 1.50612 30.0643C0.0165404 34.1105 -0.650124 39.478 0.833205 43.7768C2.2082 47.9356 5.17069 49.8545 7.93735 49.9638C9.53306 50.0358 11.1257 49.6936 12.6561 48.9497C17.0394 46.9352 21.7665 41.3628 23.6436 34.0558C24.0313 33.9616 24.3937 33.6835 24.6862 33.2557C24.9786 32.828 25.1883 32.2693 25.2894 31.6486C25.7061 29.1902 24.3248 26.964 22.854 27.582C21.4248 28.1796 20.8415 31.0375 21.7665 32.8403C20.5019 37.583 18.0165 41.2023 15.2832 43.6334C12.1728 46.3786 8.39568 47.6898 5.37069 45.8835C3.4332 44.8455 1.94987 42.0252 1.99987 38.3205C1.99987 33.8919 3.92486 29.18 6.29569 26.1206C6.04986 24.2837 6.07277 23.5939 6.05819 22.2691V22.2725ZM47.9393 27.4967C47.6771 27.5004 47.418 27.5906 47.1775 27.7619C46.937 27.9332 46.7199 28.182 46.5393 28.4937C45.8227 29.6102 45.781 31.5735 46.3477 32.7549C45.2102 35.565 43.206 37.4805 41.2331 38.58C37.3685 40.6731 32.6685 40.2975 29.154 37.2825C28.4067 36.6701 27.713 35.8961 27.0915 34.9812C26.7977 34.5441 26.7102 34.4451 26.4748 34.3392C25.4331 33.9807 24.8436 35.9987 25.5227 37.0981C28.1665 41.1579 31.8498 42.9232 35.406 43.1656C36.7894 43.2476 38.1768 43.0973 39.5373 42.6876C42.9164 41.6564 46.4497 38.9078 48.2206 34.0797C49.5518 33.8339 50.3831 31.4335 49.8227 29.4907C49.6667 28.8874 49.4038 28.3748 49.068 28.0193C48.7322 27.6637 48.339 27.4817 47.9393 27.4967ZM29.7185 42.9095C27.9894 46.7337 24.2061 47.8605 19.8227 45.3782C19.4269 45.8221 19.1936 46.1089 18.9207 46.4025C18.6498 46.6996 18.3165 46.983 17.6561 47.6522C22.9852 51.1759 28.9977 51.3262 31.6956 43.9578C31.0087 43.77 30.3424 43.4168 29.7185 42.9095Z" fill="#999999"/>
</svg>
