<svg width="50" height="50" viewBox="0 0 50 50" fill="none" xmlns="http://www.w3.org/2000/svg">
<path d="M2.34375 0C1.04583 0 0 1.04583 0 2.34375V47.6562C0 48.9542 1.04583 50 2.34375 50H47.6562C48.9542 50 50 48.9542 50 47.6562V2.34375C50 1.04583 48.9542 0 47.6562 0H2.34375ZM38.5167 20.3125C39.7917 20.3125 40.9208 20.3896 41.9062 20.5437C42.8357 20.683 43.7477 20.9204 44.6271 21.2521V26.3729C44.205 26.081 43.7565 25.8292 43.2875 25.6208C42.8038 25.4032 42.3045 25.2221 41.7938 25.0792C40.8262 24.8096 39.8273 24.6695 38.8229 24.6625C38.1979 24.6625 37.6292 24.7208 37.1167 24.8417C36.6599 24.9394 36.2217 25.1096 35.8187 25.3458C35.4646 25.5625 35.1937 25.8229 35 26.125C34.8051 26.4295 34.7037 26.7844 34.7083 27.1458C34.7083 27.5542 34.8187 27.9229 35.0333 28.2479C35.25 28.5729 35.5583 28.8813 35.9562 29.1729C36.3542 29.4646 36.8375 29.7479 37.4062 30.0271C37.975 30.3083 38.6187 30.5979 39.3354 30.8937C40.3146 31.3042 41.1937 31.7417 41.9729 32.2021C42.7521 32.6646 43.4208 33.1875 43.9792 33.7708C44.5375 34.3521 44.9625 35.0167 45.2583 35.7646C45.5542 36.5125 45.7042 37.3812 45.7042 38.375C45.7042 39.7437 45.4437 40.8958 44.9271 41.825C44.4223 42.7414 43.6978 43.5181 42.8187 44.0854C41.8712 44.6862 40.821 45.1072 39.7208 45.3271C38.5417 45.5771 37.2979 45.7021 35.9917 45.7021C34.706 45.7077 33.4227 45.5933 32.1583 45.3604C31.0644 45.1712 30.0035 44.8253 29.0083 44.3333V38.8542C30.8912 40.4565 33.2797 41.342 35.7521 41.3542C36.4458 41.3542 37.0521 41.2917 37.5688 41.1667C38.0875 41.0417 38.5187 40.8667 38.8667 40.6458C39.2125 40.4208 39.4708 40.1583 39.6437 39.8542C39.8349 39.5 39.9218 39.099 39.8945 38.6975C39.8672 38.296 39.7268 37.9104 39.4896 37.5854C39.18 37.1758 38.8015 36.8233 38.3708 36.5438C37.8368 36.1897 37.2745 35.8804 36.6896 35.6187C35.9963 35.3022 35.2969 34.9993 34.5917 34.7104C32.6792 33.9125 31.2542 32.9354 30.3146 31.7833C29.3771 30.6312 28.9062 29.2375 28.9062 27.6062C28.9062 26.3271 29.1625 25.2292 29.675 24.3104C30.1875 23.3917 30.8833 22.6354 31.7667 22.0417C32.701 21.4253 33.7382 20.9815 34.8292 20.7312C36.0375 20.4464 37.2753 20.3058 38.5167 20.3125ZM7.03125 20.7042H26.9542V25.2167H19.8042V45.3125H14.1437V25.2167H7.03125V20.7042Z" fill="#3178C6"/>
</svg>
