<svg width="50" height="50" viewBox="0 0 50 50" fill="none" xmlns="http://www.w3.org/2000/svg">
<path d="M16.6655 48.8104C16.6655 48.9666 16.6296 49.1213 16.5598 49.2656C16.4901 49.41 16.3878 49.5411 16.259 49.6516C16.1301 49.762 15.9771 49.8497 15.8087 49.9094C15.6403 49.9692 15.4598 50 15.2776 50H1.38909C1.02068 50 0.667361 49.8746 0.406856 49.6513C0.146351 49.428 0 49.1251 0 48.8094C0 48.4936 0.146351 48.1908 0.406856 47.9675C0.667361 47.7442 1.02068 47.6187 1.38909 47.6187H15.2776C16.0456 47.6187 16.6655 48.1521 16.6655 48.8104ZM15.2776 42.8542H12.4994C12.131 42.8542 11.7777 42.9796 11.5172 43.2029C11.2567 43.4262 11.1103 43.729 11.1103 44.0448C11.1103 44.3606 11.2567 44.6634 11.5172 44.8867C11.7777 45.11 12.131 45.2354 12.4994 45.2354H15.2776C15.646 45.2354 15.9993 45.11 16.2598 44.8867C16.5203 44.6634 16.6667 44.3606 16.6667 44.0448C16.6667 43.729 16.5203 43.4262 16.2598 43.2029C15.9993 42.9796 15.646 42.8542 15.2776 42.8542ZM1.38909 45.2354H6.9406C7.30901 45.2354 7.66233 45.11 7.92283 44.8867C8.18334 44.6634 8.32969 44.3606 8.32969 44.0448C8.32969 43.729 8.18334 43.4262 7.92283 43.2029C7.66233 42.9796 7.30901 42.8542 6.9406 42.8542H1.38909C1.02068 42.8542 0.667361 42.9796 0.406856 43.2029C0.146351 43.4262 0 43.729 0 44.0448C0 44.3606 0.146351 44.6634 0.406856 44.8867C0.667361 45.11 1.02068 45.2354 1.38909 45.2354ZM15.2776 38.0958H1.38909C1.02068 38.0958 0.667361 38.2213 0.406856 38.4446C0.146351 38.6678 2.89751e-07 38.9707 2.89751e-07 39.2865C2.89751e-07 39.6022 0.146351 39.9051 0.406856 40.1284C0.667361 40.3516 1.02068 40.4771 1.38909 40.4771H15.2776C15.646 40.4771 15.9993 40.3516 16.2598 40.1284C16.5203 39.9051 16.6667 39.6022 16.6667 39.2865C16.6667 38.9707 16.5203 38.6678 16.2598 38.4446C15.9993 38.2213 15.646 38.0958 15.2776 38.0958ZM34.7224 33.3333H9.72121C9.3528 33.3333 8.99948 33.4588 8.73897 33.6821C8.47847 33.9053 8.33212 34.2082 8.33212 34.524C8.33212 34.8397 8.47847 35.1426 8.73897 35.3659C8.99948 35.5891 9.3528 35.7146 9.72121 35.7146H34.7224C35.0908 35.7146 35.4442 35.5891 35.7047 35.3659C35.9652 35.1426 36.1115 34.8397 36.1115 34.524C36.1115 34.2082 35.9652 33.9053 35.7047 33.6821C35.4442 33.4588 35.0908 33.3333 34.7224 33.3333ZM1.38909 35.7146H4.16727C4.53568 35.7146 4.88901 35.5891 5.14951 35.3659C5.41002 35.1426 5.55637 34.8397 5.55637 34.524C5.55637 34.2082 5.41002 33.9053 5.14951 33.6821C4.88901 33.4588 4.53568 33.3333 4.16727 33.3333H1.38909C1.02068 33.3333 0.667361 33.4588 0.406856 33.6821C0.146351 33.9053 0 34.2082 0 34.524C0 34.8397 0.146351 35.1426 0.406856 35.3659C0.667361 35.5891 1.02068 35.7146 1.38909 35.7146ZM43.057 28.5708H34.7224C34.354 28.5708 34.0007 28.6963 33.7402 28.9196C33.4797 29.1428 33.3333 29.4457 33.3333 29.7615C33.3333 30.0772 33.4797 30.3801 33.7402 30.6034C34.0007 30.8266 34.354 30.9521 34.7224 30.9521H43.057C43.4254 30.9521 43.7787 30.8266 44.0392 30.6034C44.2997 30.3801 44.4461 30.0772 44.4461 29.7615C44.4461 29.4457 44.2997 29.1428 44.0392 28.9196C43.7787 28.6963 43.4254 28.5708 43.057 28.5708ZM18.0558 30.9521H29.1661C29.5345 30.9521 29.8878 30.8266 30.1483 30.6034C30.4088 30.3801 30.5552 30.0772 30.5552 29.7615C30.5552 29.4457 30.4088 29.1428 30.1483 28.9196C29.8878 28.6963 29.5345 28.5708 29.1661 28.5708H18.0558C17.6873 28.5708 17.334 28.6963 17.0735 28.9196C16.813 29.1428 16.6667 29.4457 16.6667 29.7615C16.6667 30.0772 16.813 30.3801 17.0735 30.6034C17.334 30.8266 17.6873 30.9521 18.0558 30.9521ZM1.38909 30.9521H12.4994C12.8678 30.9521 13.2211 30.8266 13.4816 30.6034C13.7421 30.3801 13.8885 30.0772 13.8885 29.7615C13.8885 29.4457 13.7421 29.1428 13.4816 28.9196C13.2211 28.6963 12.8678 28.5708 12.4994 28.5708H1.38909C1.02068 28.5708 0.667361 28.6963 0.406856 28.9196C0.146351 29.1428 0 29.4457 0 29.7615C0 30.0772 0.146351 30.3801 0.406856 30.6034C0.667361 30.8266 1.02068 30.9521 1.38909 30.9521ZM45.8303 23.8125H23.6146C23.2465 23.8125 22.8935 23.9378 22.6332 24.1609C22.3729 24.384 22.2267 24.6866 22.2267 25.0021C22.2267 25.3176 22.3729 25.6202 22.6332 25.8432C22.8935 26.0663 23.2465 26.1917 23.6146 26.1917H45.8352C46.2032 26.1917 46.5563 26.0663 46.8165 25.8432C47.0768 25.6202 47.223 25.3176 47.223 25.0021C47.223 24.6866 47.0768 24.384 46.8165 24.1609C46.5563 23.9378 46.2032 23.8125 45.8352 23.8125H45.8303ZM19.4436 25C19.4436 24.6845 19.2974 24.3819 19.0371 24.1588C18.7769 23.9357 18.4238 23.8104 18.0558 23.8104H9.72121C9.35312 23.8104 9.00011 23.9357 8.73983 24.1588C8.47956 24.3819 8.33333 24.6845 8.33333 25C8.33333 25.3155 8.47956 25.6181 8.73983 25.8412C9.00011 26.0643 9.35312 26.1896 9.72121 26.1896H18.0558C18.4238 26.1896 18.7769 26.0643 19.0371 25.8412C19.2974 25.6181 19.4436 25.3155 19.4436 25ZM1.38909 26.1896H4.16727C4.53536 26.1896 4.88837 26.0643 5.14865 25.8412C5.40893 25.6181 5.55515 25.3155 5.55515 25C5.55515 24.6845 5.40893 24.3819 5.14865 24.1588C4.88837 23.9357 4.53536 23.8104 4.16727 23.8104H1.38909C1.021 23.8104 0.667992 23.9357 0.407715 24.1588C0.147438 24.3819 0.0012155 24.6845 0.0012155 25C0.0012155 25.3155 0.147438 25.6181 0.407715 25.8412C0.667992 26.0643 1.021 26.1896 1.38909 26.1896ZM48.6109 19.0479H34.7224C34.354 19.0479 34.0007 19.1734 33.7402 19.3966C33.4797 19.6199 33.3333 19.9228 33.3333 20.2385C33.3333 20.5543 33.4797 20.8572 33.7402 21.0804C34.0007 21.3037 34.354 21.4292 34.7224 21.4292H48.6109C48.9793 21.4292 49.3326 21.3037 49.5931 21.0804C49.8536 20.8572 50 20.5543 50 20.2385C50 19.9228 49.8536 19.6199 49.5931 19.3966C49.3326 19.1734 48.9793 19.0479 48.6109 19.0479ZM1.38909 21.4292H15.2776C15.646 21.4292 15.9993 21.3037 16.2598 21.0804C16.5203 20.8572 16.6667 20.5543 16.6667 20.2385C16.6667 19.9228 16.5203 19.6199 16.2598 19.3966C15.9993 19.1734 15.646 19.0479 15.2776 19.0479H1.38909C1.02068 19.0479 0.667361 19.1734 0.406856 19.3966C0.146351 19.6199 0 19.9228 0 20.2385C0 20.5543 0.146351 20.8572 0.406856 21.0804C0.667361 21.3037 1.02068 21.4292 1.38909 21.4292ZM33.3346 15.4771C33.3346 16.1333 33.9544 16.6667 34.7224 16.6667H48.6109C48.9793 16.6667 49.3326 16.5412 49.5931 16.3179C49.8536 16.0947 50 15.7918 50 15.476C50 15.1603 49.8536 14.8574 49.5931 14.6341C49.3326 14.4109 48.9793 14.2854 48.6109 14.2854H34.7224C34.54 14.2854 34.3593 14.3163 34.1908 14.3762C34.0222 14.4361 33.8691 14.5239 33.7402 14.6346C33.6113 14.7453 33.5091 14.8766 33.4395 15.0212C33.3699 15.1658 33.3342 15.3207 33.3346 15.4771ZM12.4994 14.2854C12.131 14.2854 11.7777 14.4109 11.5172 14.6341C11.2567 14.8574 11.1103 15.1603 11.1103 15.476C11.1103 15.7918 11.2567 16.0947 11.5172 16.3179C11.7777 16.5412 12.131 16.6667 12.4994 16.6667H15.2776C15.646 16.6667 15.9993 16.5412 16.2598 16.3179C16.5203 16.0947 16.6667 15.7918 16.6667 15.476C16.6667 15.1603 16.5203 14.8574 16.2598 14.6341C15.9993 14.4109 15.646 14.2854 15.2776 14.2854H12.4994ZM1.38909 16.6667H6.9406C7.30901 16.6667 7.66233 16.5412 7.92283 16.3179C8.18334 16.0947 8.32969 15.7918 8.32969 15.476C8.32969 15.1603 8.18334 14.8574 7.92283 14.6341C7.66233 14.4109 7.30901 14.2854 6.9406 14.2854H1.38909C1.02068 14.2854 0.667361 14.4109 0.406856 14.6341C0.146351 14.8574 0 15.1603 0 15.476C0 15.7918 0.146351 16.0947 0.406856 16.3179C0.667361 16.5412 1.02068 16.6667 1.38909 16.6667ZM41.6667 10.7146C41.6667 11.3708 42.2889 11.9042 43.057 11.9042H45.8327C46.2011 11.9042 46.5545 11.7787 46.815 11.5554C47.0755 11.3322 47.2218 11.0293 47.2218 10.7135C47.2218 10.3978 47.0755 10.0949 46.815 9.87164C46.5545 9.64836 46.2011 9.52292 45.8327 9.52292H43.0594C42.8767 9.52264 42.6958 9.55328 42.527 9.61307C42.3582 9.67286 42.2048 9.76062 42.0756 9.87134C41.9464 9.98205 41.844 10.1135 41.7743 10.2582C41.7045 10.4029 41.6688 10.558 41.6691 10.7146H41.6667ZM38.8885 10.7146C38.8888 10.5582 38.8531 10.4033 38.7835 10.2587C38.7139 10.1141 38.6118 9.98276 38.4828 9.87207C38.3539 9.76139 38.2008 9.67358 38.0323 9.61367C37.8637 9.55375 37.6831 9.52292 37.5006 9.52292H26.3854C26.017 9.52292 25.6637 9.64836 25.4032 9.87164C25.1427 10.0949 24.9964 10.3978 24.9964 10.7135C24.9964 11.0293 25.1427 11.3322 25.4032 11.5554C25.6637 11.7787 26.017 11.9042 26.3854 11.9042H37.4982C37.8663 11.9042 38.2193 11.7788 38.4796 11.5557C38.7398 11.3327 38.8861 11.0301 38.8861 10.7146H38.8885ZM1.38909 11.9042H20.8339C21.2024 11.9042 21.5557 11.7787 21.8162 11.5554C22.0767 11.3322 22.223 11.0293 22.223 10.7135C22.223 10.3978 22.0767 10.0949 21.8162 9.87164C21.5557 9.64836 21.2024 9.52292 20.8339 9.52292H1.38909C1.02068 9.52292 0.667361 9.64836 0.406856 9.87164C0.146351 10.0949 0 10.3978 0 10.7135C0 11.0293 0.146351 11.3322 0.406856 11.5554C0.667361 11.7787 1.02068 11.9042 1.38909 11.9042ZM13.8897 5.95208C13.8897 6.61042 14.5095 7.14375 15.2776 7.14375H43.057C43.4254 7.14375 43.7787 7.01831 44.0392 6.79502C44.2997 6.57174 44.4461 6.2689 44.4461 5.95312C44.4461 5.63735 44.2997 5.33451 44.0392 5.11123C43.7787 4.88794 43.4254 4.7625 43.057 4.7625H15.2776C14.9095 4.7625 14.5565 4.88783 14.2962 5.11092C14.0359 5.33401 13.8897 5.63659 13.8897 5.95208ZM1.38909 7.14375H9.72121C10.0896 7.14375 10.4429 7.01831 10.7034 6.79502C10.964 6.57174 11.1103 6.2689 11.1103 5.95312C11.1103 5.63735 10.964 5.33451 10.7034 5.11123C10.4429 4.88794 10.0896 4.7625 9.72121 4.7625H1.38909C1.02068 4.7625 0.667361 4.88794 0.406856 5.11123C0.146351 5.33451 0 5.63735 0 5.95312C0 6.2689 0.146351 6.57174 0.406856 6.79502C0.667361 7.01831 1.02068 7.14375 1.38909 7.14375ZM1.38909 2.38125H34.7224C35.0908 2.38125 35.4442 2.25581 35.7047 2.03252C35.9652 1.80924 36.1115 1.5064 36.1115 1.19062C36.1115 0.874852 35.9652 0.572011 35.7047 0.348726C35.4442 0.12544 35.0908 0 34.7224 0L1.38909 0C1.02068 0 0.667361 0.12544 0.406856 0.348726C0.146351 0.572011 0 0.874852 0 1.19062C0 1.5064 0.146351 1.80924 0.406856 2.03252C0.667361 2.25581 1.02068 2.38125 1.38909 2.38125Z" fill="#F7B93E"/>
</svg>
