<svg width="50" height="50" viewBox="0 0 50 50" fill="none" xmlns="http://www.w3.org/2000/svg">
<path d="M48.4625 38.5372L25.9865 50V41.072L39.9903 34.1267L48.4623 38.537L48.4625 38.5372ZM50 37.2818V13.3092L41.7751 17.5892V32.9973L50 37.2818ZM1.53745 38.5372L24.0135 50V41.072L10.0097 34.1267L1.53768 38.537L1.53745 38.5372ZM0 37.2818V13.3092L8.22467 17.5892V32.9973L0 37.2818ZM0.962317 11.7582L24.0135 0V8.63198L9.24588 15.9554L9.13338 16.0138L0.962317 11.7582ZM49.0379 11.7582L25.9865 0V8.63198L40.7541 15.9556L40.8666 16.014L49.0377 11.7584L49.0379 11.7582ZM24.0138 39.0412L10.1976 32.1927V18.6216L24.0133 25.8143V39.0412H24.0138ZM25.9865 39.0412L39.8019 32.1927V18.6216L25.9865 25.8143V39.0412ZM11.1332 17.051L25.0025 10.173L38.8723 17.051L25.0028 24.2728L11.1332 17.051Z" fill="#8DD6F9"/>
</svg>
