<svg width="30" height="31" viewBox="0 0 30 31" fill="none" xmlns="http://www.w3.org/2000/svg">
<path d="M3.75 0.5C1.6725 0.5 0 2.1725 0 4.25V26.75C0 28.8275 1.6725 30.5 3.75 30.5H26.25C28.3275 30.5 30 28.8275 30 26.75V4.25C30 2.1725 28.3275 0.5 26.25 0.5H3.75ZM12.3538 8.3125C13.1413 8.3125 13.61 8.6875 13.76 9.4375L15.5887 19.8163C16.17 19.0475 16.6462 18.4 17.0212 17.875C17.6025 17.05 18.1375 16.1025 18.625 15.0337C19.1312 13.965 19.385 13.0087 19.385 12.165C19.385 11.6587 19.2438 11.2562 18.9625 10.9562C18.7 10.6375 18.2025 10.235 17.4713 9.7475C18.2213 8.79125 19.1587 8.3125 20.2837 8.3125C20.8837 8.3125 21.3813 8.49125 21.775 8.8475C22.1875 9.20375 22.3925 9.7275 22.3925 10.4225C22.3925 11.585 21.905 13.0387 20.93 14.7825C19.9737 16.5075 18.1287 19.1038 15.3912 22.5725L12.6075 22.7675L10.4688 10.7325H7.65625V9.55C8.40625 9.30625 9.2875 9.0425 10.3 8.7625C11.3125 8.4625 11.9975 8.3125 12.3538 8.3125V8.3125Z" fill="white"/>
</svg>
