<svg width="34" height="34" viewBox="0 0 34 34" fill="none" xmlns="http://www.w3.org/2000/svg">
<path d="M9.41667 25C9.41667 25 8 25 8 23.5833C8 22.1667 9.41667 17.9167 16.5 17.9167C23.5833 17.9167 25 22.1667 25 23.5833C25 25 23.5833 25 23.5833 25H9.41667ZM16.5 16.5C17.6272 16.5 18.7082 16.0522 19.5052 15.2552C20.3022 14.4582 20.75 13.3772 20.75 12.25C20.75 11.1228 20.3022 10.0418 19.5052 9.2448C18.7082 8.44777 17.6272 8 16.5 8C15.3728 8 14.2918 8.44777 13.4948 9.2448C12.6978 10.0418 12.25 11.1228 12.25 12.25C12.25 13.3772 12.6978 14.4582 13.4948 15.2552C14.2918 16.0522 15.3728 16.5 16.5 16.5V16.5Z" fill="white"/>
</svg>
